<svg xmlns="http://www.w3.org/2000/svg" viewBox="0 0 64 64">
  <title>Mostly clear</title>
  <g fill="none" stroke="#f5a400" stroke-width="4.2" stroke-linecap="round" stroke-linejoin="round">
    <circle cx="28" cy="28" r="13.5"/>
    <line x1="46.5" y1="28" x2="53" y2="28"/>
    <line x1="41.1" y1="41.1" x2="45.7" y2="45.7"/>
    <line x1="28" y1="46.5" x2="28" y2="53"/>
    <line x1="14.9" y1="41.1" x2="10.3" y2="45.7"/>
    <line x1="9.5" y1="28" x2="3" y2="28"/>
    <line x1="14.9" y1="14.9" x2="10.3" y2="10.3"/>
    <line x1="28" y1="9.5" x2="28" y2="3"/>
    <line x1="41.1" y1="14.9" x2="45.7" y2="10.3"/>
  </g>
  <g transform="translate(1 3)">
    <path d="M27 45h19a6.8 6.8 0 0 0 .7-13.6 9.5 9.5 0 0 0-17.5-3.1A7.5 7.5 0 0 0 27 45Z" fill="#fff" stroke="#9ea3a5" stroke-width="4" stroke-linecap="round" stroke-linejoin="round"/>
  </g>
</svg>
