<svg xmlns="http://www.w3.org/2000/svg" viewBox="0 0 64 64">
  <title>Snow showers</title>
  <g fill="none" stroke="#f5a400" stroke-width="3.8" stroke-linecap="round" stroke-linejoin="round">
    <circle cx="22" cy="20" r="12"/>
    <line x1="39" y1="20" x2="44" y2="20"/>
    <line x1="34" y1="32" x2="37.6" y2="35.6"/>
    <line x1="22" y1="37" x2="22" y2="42"/>
    <line x1="10" y1="32" x2="6.4" y2="35.6"/>
    <line x1="5" y1="20" x2="0" y2="20"/>
    <line x1="10" y1="8" x2="6.4" y2="4.4"/>
    <line x1="22" y1="3" x2="22" y2="-2"/>
    <line x1="34" y1="8" x2="37.6" y2="4.4"/>
  </g>
  <path d="M17 43h29a9 9 0 0 0 1-18 13 13 0 0 0-24-4 10 10 0 0 0-6 22Z" fill="#fff" stroke="#9ea3a5" stroke-width="4.4" stroke-linecap="round" stroke-linejoin="round"/>
  <g fill="none" stroke="#64add2" stroke-width="2.3" stroke-linecap="round">
    <line x1="27" y1="49" x2="27" y2="57"/>
    <line x1="23" y1="53" x2="31" y2="53"/>
    <line x1="24.1" y1="50.1" x2="29.9" y2="55.9"/>
    <line x1="29.9" y1="50.1" x2="24.1" y2="55.9"/>
  </g>
  <g fill="none" stroke="#64add2" stroke-width="2.3" stroke-linecap="round">
    <line x1="43" y1="49" x2="43" y2="57"/>
    <line x1="39" y1="53" x2="47" y2="53"/>
    <line x1="40.1" y1="50.1" x2="45.9" y2="55.9"/>
    <line x1="45.9" y1="50.1" x2="40.1" y2="55.9"/>
  </g>
</svg>
