<svg xmlns="http://www.w3.org/2000/svg" viewBox="0 0 64 64">
  <title>Night snow showers</title>
  <mask id="moon-cut">
    <rect width="64" height="64" fill="#fff"/>
    <circle cx="33" cy="13" r="15" fill="#000"/>
  </mask>
  <circle cx="24" cy="19" r="15" fill="#c5cace" mask="url(#moon-cut)"/>
  <path d="M17 43h29a9 9 0 0 0 1-18 13 13 0 0 0-24-4 10 10 0 0 0-6 22Z" fill="#fff" stroke="#9ea3a5" stroke-width="4.4" stroke-linecap="round" stroke-linejoin="round"/>
  <g fill="none" stroke="#64add2" stroke-width="2.3" stroke-linecap="round">
    <line x1="27" y1="49" x2="27" y2="57"/>
    <line x1="23" y1="53" x2="31" y2="53"/>
    <line x1="24.1" y1="50.1" x2="29.9" y2="55.9"/>
    <line x1="29.9" y1="50.1" x2="24.1" y2="55.9"/>
  </g>
  <g fill="none" stroke="#64add2" stroke-width="2.3" stroke-linecap="round">
    <line x1="43" y1="49" x2="43" y2="57"/>
    <line x1="39" y1="53" x2="47" y2="53"/>
    <line x1="40.1" y1="50.1" x2="45.9" y2="55.9"/>
    <line x1="45.9" y1="50.1" x2="40.1" y2="55.9"/>
  </g>
</svg>
